<svg width="8" height="13" viewBox="0 0 8 13" fill="none" xmlns="http://www.w3.org/2000/svg">
<path id="Vector" d="M3.80952 0.404785C2.34667 0.404785 1.14286 1.60859 1.14286 3.07145C1.14286 3.78002 1.43238 4.42764 1.90476 4.90764C0.739048 5.66955 0 6.9724 0 8.40479C0 10.7134 1.8819 12.5953 4.19048 12.5953C5.53143 12.5953 6.85714 12.2448 8 11.5743L7.2381 10.2562C6.30857 10.7895 5.25714 11.0715 4.19048 11.0715C2.71238 11.0715 1.52381 9.8905 1.52381 8.40479C1.52246 7.81795 1.71527 7.24714 2.07221 6.78134C2.42915 6.31553 2.93015 5.98088 3.49714 5.82955L7.46667 4.76288L7.07048 3.2924L3.68 4.21431C3.10857 4.13812 2.66667 3.66574 2.66667 3.07145C2.66667 2.43145 3.16952 1.92859 3.80952 1.92859C4.00762 1.92859 4.19048 1.98193 4.38095 2.08098L5.14286 0.76288C4.73905 0.52669 4.27429 0.404785 3.80952 0.404785Z" fill="#0B2442"/>
</svg>
