<svg width="24" height="24" viewBox="0 0 24 24" fill="none" xmlns="http://www.w3.org/2000/svg">
<g id="shield_locked">
<rect id="Bounding box" width="24" height="24" rx="4" fill="#FF3A2B"/>
<g id="lock_reset">
<mask id="mask0_260_3274" style="mask-type:alpha" maskUnits="userSpaceOnUse" x="2" y="2" width="20" height="20">
<rect id="Bounding box_2" x="2" y="2" width="20" height="20" fill="#D9D9D9"/>
</mask>
<g mask="url(#mask0_260_3274)">
<path id="lock_reset_2" d="M12.8333 19.5C11.8056 19.5 10.8438 19.309 9.94792 18.9271C9.05208 18.5451 8.26389 18.0208 7.58333 17.3542L8.77083 16.1667C9.29861 16.6806 9.90972 17.0868 10.6042 17.3854C11.2986 17.684 12.0417 17.8333 12.8333 17.8333C14.4444 17.8333 15.8194 17.2639 16.9583 16.125C18.0972 14.9861 18.6667 13.6111 18.6667 12C18.6667 10.3889 18.0972 9.01389 16.9583 7.875C15.8194 6.73611 14.4444 6.16667 12.8333 6.16667C11.2222 6.16667 9.84722 6.73611 8.70833 7.875C7.56944 9.01389 7 10.3889 7 12V12.1458L8.52083 10.625L9.70833 11.7917L6.16667 15.3333L2.625 11.7917L3.8125 10.625L5.33333 12.1667V12C5.33333 10.9583 5.53125 9.98264 5.92708 9.07292C6.32292 8.16319 6.85764 7.37153 7.53125 6.69792C8.20486 6.02431 8.99653 5.48958 9.90625 5.09375C10.816 4.69792 11.7917 4.5 12.8333 4.5C13.875 4.5 14.8507 4.69792 15.7604 5.09375C16.6701 5.48958 17.4618 6.02431 18.1354 6.69792C18.809 7.37153 19.3438 8.16319 19.7396 9.07292C20.1354 9.98264 20.3333 10.9583 20.3333 12C20.3333 14.0833 19.6042 15.8542 18.1458 17.3125C16.6875 18.7708 14.9167 19.5 12.8333 19.5ZM11.1667 15.3333C10.9306 15.3333 10.7326 15.2535 10.5729 15.0938C10.4132 14.934 10.3333 14.7361 10.3333 14.5V12C10.3333 11.7639 10.4132 11.566 10.5729 11.4062C10.7326 11.2465 10.9306 11.1667 11.1667 11.1667V10.3333C11.1667 9.875 11.3299 9.48264 11.6563 9.15625C11.9826 8.82986 12.375 8.66667 12.8333 8.66667C13.2917 8.66667 13.684 8.82986 14.0104 9.15625C14.3368 9.48264 14.5 9.875 14.5 10.3333V11.1667C14.7361 11.1667 14.934 11.2465 15.0938 11.4062C15.2535 11.566 15.3333 11.7639 15.3333 12V14.5C15.3333 14.7361 15.2535 14.934 15.0938 15.0938C14.934 15.2535 14.7361 15.3333 14.5 15.3333H11.1667ZM12 11.1667H13.6667V10.3333C13.6667 10.0972 13.5868 9.89931 13.4271 9.73958C13.2674 9.57986 13.0694 9.5 12.8333 9.5C12.5972 9.5 12.3993 9.57986 12.2396 9.73958C12.0799 9.89931 12 10.0972 12 10.3333V11.1667Z" fill="white"/>
</g>
</g>
</g>
</svg>
