<svg width="24" height="24" viewBox="0 0 24 24" fill="none" xmlns="http://www.w3.org/2000/svg">
<g id="shield_locked">
<rect id="Bounding box" width="24" height="24" rx="4" fill="#B74FE2"/>
<g id="mail">
<mask id="mask0_260_3261" style="mask-type:alpha" maskUnits="userSpaceOnUse" x="3" y="3" width="18" height="18">
<rect id="Bounding box_2" x="3" y="3" width="18" height="18" fill="#D9D9D9"/>
</mask>
<g mask="url(#mask0_260_3261)">
<path id="mail_2" d="M6.00049 18C5.58799 18 5.23486 17.8531 4.94111 17.5594C4.64736 17.2656 4.50049 16.9125 4.50049 16.5V7.5C4.50049 7.0875 4.64736 6.73438 4.94111 6.44063C5.23486 6.14688 5.58799 6 6.00049 6H18.0005C18.413 6 18.7661 6.14688 19.0599 6.44063C19.3536 6.73438 19.5005 7.0875 19.5005 7.5V16.5C19.5005 16.9125 19.3536 17.2656 19.0599 17.5594C18.7661 17.8531 18.413 18 18.0005 18H6.00049ZM12.0005 12.75L18.0005 9V7.5L12.0005 11.25L6.00049 7.5V9L12.0005 12.75Z" fill="white"/>
</g>
</g>
</g>
</svg>
