<svg width="14" height="11" viewBox="0 0 14 11" fill="none" xmlns="http://www.w3.org/2000/svg">
<path id="Vector" d="M8 4.16669H9.33333V4.67135C9.78511 4.3695 10.3104 4.196 10.8531 4.16939C11.3957 4.14278 11.9355 4.26405 12.4146 4.52025C12.8937 4.77645 13.2943 5.15797 13.5735 5.62407C13.8528 6.09017 14.0002 6.62335 14 7.16669V10.8334H12.6667V7.16669C12.6667 6.21335 11.884 5.50002 11 5.50002C10.116 5.50002 9.33333 6.21335 9.33333 7.16669V10.8334H8V4.16669ZM6.66667 0.166687V1.50002H1.33333V4.83335H6.66667V6.16669H1.33333V9.50002H6.66667V10.8334H0V0.166687H6.66667Z" fill="#0B2442"/>
</svg>
