<svg width="121" height="20" viewBox="0 0 121 20" fill="none" xmlns="http://www.w3.org/2000/svg">
<path d="M13.5 1.00671H0.5C0.223858 1.00671 0 1.23057 0 1.50671V3.5221C0 3.79824 0.223857 4.0221 0.5 4.0221H13.5C13.7761 4.0221 14 3.79824 14 3.5221V1.50671C14 1.23057 13.7761 1.00671 13.5 1.00671Z" fill="url(#paint0_linear_205_1672)"/>
<path d="M12.1359 8.76062H0.5C0.223858 8.76062 0 8.98448 0 9.26062V11.276C0 11.5521 0.223857 11.776 0.5 11.776H12.1359C12.412 11.776 12.6359 11.5521 12.6359 11.276V9.26062C12.6359 8.98448 12.412 8.76062 12.1359 8.76062Z" fill="url(#paint1_linear_205_1672)"/>
<path d="M13.5 16.5144H0.5C0.223858 16.5144 0 16.7383 0 17.0144V19.0298C0 19.3059 0.223857 19.5298 0.5 19.5298H13.5C13.7761 19.5298 14 19.3059 14 19.0298V17.0144C14 16.7383 13.7761 16.5144 13.5 16.5144Z" fill="url(#paint2_linear_205_1672)"/>
<path d="M49.5 1.00671H36.5C36.2239 1.00671 36 1.23057 36 1.50671V3.5221C36 3.79824 36.2239 4.0221 36.5 4.0221H49.5C49.7761 4.0221 50 3.79824 50 3.5221V1.50671C50 1.23057 49.7761 1.00671 49.5 1.00671Z" fill="url(#paint3_linear_205_1672)"/>
<path d="M48.1359 8.76062H36.5C36.2239 8.76062 36 8.98448 36 9.26062V11.276C36 11.5521 36.2239 11.776 36.5 11.776H48.1359C48.412 11.776 48.6359 11.5521 48.6359 11.276V9.26062C48.6359 8.98448 48.412 8.76062 48.1359 8.76062Z" fill="url(#paint4_linear_205_1672)"/>
<path d="M49.5 16.5144H36.5C36.2239 16.5144 36 16.7383 36 17.0144V19.0298C36 19.3059 36.2239 19.5298 36.5 19.5298H49.5C49.7761 19.5298 50 19.3059 50 19.0298V17.0144C50 16.7383 49.7761 16.5144 49.5 16.5144Z" fill="url(#paint5_linear_205_1672)"/>
<path d="M19.1204 1.00671H16.7179C16.3698 1.00671 16.1282 1.35356 16.2489 1.68007L22.7467 19.2584C22.8193 19.4547 23.0064 19.585 23.2157 19.585H25.5498C25.8972 19.585 26.1387 19.2395 26.0194 18.9133L19.5899 1.33496C19.5178 1.13783 19.3303 1.00671 19.1204 1.00671Z" fill="url(#paint6_linear_205_1672)"/>
<path d="M33.718 1.69603L28.6186 14.1614C28.4476 14.5794 27.8539 14.5744 27.6899 14.1537L26.5539 11.2395C26.5077 11.1209 26.5084 10.9892 26.556 10.8711L30.404 1.31987C30.4802 1.13065 30.6637 1.00671 30.8677 1.00671H33.2552C33.6106 1.00671 33.8526 1.36709 33.718 1.69603Z" fill="url(#paint7_linear_205_1672)"/>
<path d="M52 19.5V5.62465C52 5.54475 52.0648 5.47998 52.1447 5.47998C52.1919 5.47998 52.2361 5.50301 52.2632 5.54169L55.2096 9.75086C55.2684 9.8349 55.3 9.93501 55.3 10.0376V19.5C55.3 19.7761 55.0761 20 54.8 20H52.5C52.2239 20 52 19.7761 52 19.5Z" fill="url(#paint8_linear_205_1672)"/>
<path d="M55.6279 1.00671H53.267C52.8599 1.00671 52.6234 1.46724 52.8607 1.79808L65.7103 19.7181C65.8042 19.849 65.9555 19.9267 66.1166 19.9267H67.9999C68.276 19.9267 68.4999 19.7029 68.4999 19.4267V1.50671C68.4999 1.23057 68.276 1.00671 67.9999 1.00671H65.7732C65.4971 1.00671 65.2732 1.23057 65.2732 1.50671V13.9634C65.2732 14.0168 65.2299 14.06 65.1765 14.06C65.1452 14.06 65.1158 14.0448 65.0977 14.0192L56.036 1.21783C55.9423 1.08542 55.7901 1.00671 55.6279 1.00671Z" fill="url(#paint9_linear_205_1672)"/>
<path d="M85 1.00671H71C70.7239 1.00671 70.5 1.23057 70.5 1.50671V3.50671C70.5 3.78286 70.7239 4.00671 71 4.00671H85C85.2761 4.00671 85.5 3.78286 85.5 3.50671V1.50671C85.5 1.23057 85.2761 1.00671 85 1.00671Z" fill="url(#paint10_linear_205_1672)"/>
<path d="M79.5 7.64954V18.9352C79.5 19.2114 79.2761 19.4352 79 19.4352H76.8571C76.581 19.4352 76.3571 19.2114 76.3571 18.9352V7.64954C76.3571 7.37339 76.581 7.14954 76.8571 7.14954H79C79.2761 7.14954 79.5 7.37339 79.5 7.64954Z" fill="url(#paint11_linear_205_1672)"/>
<path d="M87.4355 19.6599H85.242C84.8874 19.6599 84.6454 19.3009 84.7786 18.9722L89.7537 6.69185C89.9246 6.27001 90.5244 6.27732 90.685 6.70319L91.8325 9.74652C91.8779 9.86694 91.8751 10.0002 91.8247 10.1186L87.8956 19.3557C87.8171 19.5402 87.636 19.6599 87.4355 19.6599Z" fill="url(#paint12_linear_205_1672)"/>
<path d="M101.783 19.7325H99.291C99.0821 19.7325 98.8952 19.6027 98.8223 19.4069L92.2267 1.68108C92.1051 1.3544 92.3467 1.00671 92.6953 1.00671H95.2561C95.4656 1.00671 95.6529 1.13734 95.7253 1.33395L102.252 19.0598C102.372 19.3862 102.131 19.7325 101.783 19.7325Z" fill="url(#paint13_linear_205_1672)"/>
<path d="M117.343 0.654541H119.696C120.103 0.654541 120.34 1.11506 120.102 1.44591L107.284 19.3229C107.19 19.4538 107.038 19.5315 106.877 19.5315H105C104.724 19.5315 104.5 19.3076 104.5 19.0315V1.15454C104.5 0.878399 104.724 0.654541 105 0.654541H107.219C107.495 0.654541 107.719 0.878398 107.719 1.15454V13.5817C107.719 13.635 107.763 13.6782 107.816 13.6782C107.847 13.6782 107.876 13.663 107.895 13.6375L116.935 0.86566C117.029 0.733248 117.181 0.654541 117.343 0.654541Z" fill="url(#paint14_linear_205_1672)"/>
<path d="M120.275 19.3416L117.715 19.3416C117.618 19.3416 117.529 19.2849 117.488 19.1964L114.945 13.6846C114.908 13.6056 114.915 13.5134 114.964 13.4411L116.421 11.2553C116.529 11.0936 116.771 11.1114 116.855 11.287L120.501 18.9846C120.579 19.1505 120.458 19.3416 120.275 19.3416Z" fill="url(#paint15_linear_205_1672)"/>
<defs>
<linearGradient id="paint0_linear_205_1672" x1="7" y1="1.00671" x2="7" y2="4.0221" gradientUnits="userSpaceOnUse">
<stop stop-color="#59A5FF"/>
<stop offset="1" stop-color="#1C5CA8"/>
</linearGradient>
<linearGradient id="paint1_linear_205_1672" x1="6.31795" y1="8.76062" x2="6.31795" y2="11.776" gradientUnits="userSpaceOnUse">
<stop stop-color="#59A5FF"/>
<stop offset="1" stop-color="#1C5CA8"/>
</linearGradient>
<linearGradient id="paint2_linear_205_1672" x1="7" y1="16.5144" x2="7" y2="19.5298" gradientUnits="userSpaceOnUse">
<stop stop-color="#59A5FF"/>
<stop offset="1" stop-color="#1C5CA8"/>
</linearGradient>
<linearGradient id="paint3_linear_205_1672" x1="43" y1="1.00671" x2="43" y2="4.0221" gradientUnits="userSpaceOnUse">
<stop stop-color="#59A5FF"/>
<stop offset="1" stop-color="#1C5CA8"/>
</linearGradient>
<linearGradient id="paint4_linear_205_1672" x1="42.3179" y1="8.76062" x2="42.3179" y2="11.776" gradientUnits="userSpaceOnUse">
<stop stop-color="#59A5FF"/>
<stop offset="1" stop-color="#1C5CA8"/>
</linearGradient>
<linearGradient id="paint5_linear_205_1672" x1="43" y1="16.5144" x2="43" y2="19.5298" gradientUnits="userSpaceOnUse">
<stop stop-color="#59A5FF"/>
<stop offset="1" stop-color="#1C5CA8"/>
</linearGradient>
<linearGradient id="paint6_linear_205_1672" x1="21.1325" y1="1.00671" x2="21.1325" y2="19.585" gradientUnits="userSpaceOnUse">
<stop stop-color="#59A5FF"/>
<stop offset="1" stop-color="#1C5CA8"/>
</linearGradient>
<linearGradient id="paint7_linear_205_1672" x1="30.241" y1="1.00671" x2="30.241" y2="15.32" gradientUnits="userSpaceOnUse">
<stop stop-color="#59A5FF"/>
<stop offset="1" stop-color="#1C5CA8"/>
</linearGradient>
<linearGradient id="paint8_linear_205_1672" x1="53.65" y1="5.47998" x2="53.65" y2="20" gradientUnits="userSpaceOnUse">
<stop stop-color="#59A5FF"/>
<stop offset="1" stop-color="#1C5CA8"/>
</linearGradient>
<linearGradient id="paint9_linear_205_1672" x1="60.3965" y1="1.00671" x2="60.3965" y2="19.9267" gradientUnits="userSpaceOnUse">
<stop stop-color="#59A5FF"/>
<stop offset="1" stop-color="#1C5CA8"/>
</linearGradient>
<linearGradient id="paint10_linear_205_1672" x1="78" y1="1.00671" x2="78" y2="4.00671" gradientUnits="userSpaceOnUse">
<stop stop-color="#59A5FF"/>
<stop offset="1" stop-color="#1C5CA8"/>
</linearGradient>
<linearGradient id="paint11_linear_205_1672" x1="77.9285" y1="7.14954" x2="77.9285" y2="19.4353" gradientUnits="userSpaceOnUse">
<stop stop-color="#59A5FF"/>
<stop offset="1" stop-color="#1C5CA8"/>
</linearGradient>
<linearGradient id="paint12_linear_205_1672" x1="88.2016" y1="5.50671" x2="88.2016" y2="19.6599" gradientUnits="userSpaceOnUse">
<stop stop-color="#59A5FF"/>
<stop offset="1" stop-color="#1C5CA8"/>
</linearGradient>
<linearGradient id="paint13_linear_205_1672" x1="97.2379" y1="1.00671" x2="97.2379" y2="19.7325" gradientUnits="userSpaceOnUse">
<stop stop-color="#59A5FF"/>
<stop offset="1" stop-color="#1C5CA8"/>
</linearGradient>
<linearGradient id="paint14_linear_205_1672" x1="112.585" y1="0.654541" x2="112.585" y2="19.5315" gradientUnits="userSpaceOnUse">
<stop stop-color="#59A5FF"/>
<stop offset="1" stop-color="#1C5CA8"/>
</linearGradient>
<linearGradient id="paint15_linear_205_1672" x1="117.778" y1="10.8879" x2="117.778" y2="19.3416" gradientUnits="userSpaceOnUse">
<stop stop-color="#59A5FF"/>
<stop offset="1" stop-color="#1C5CA8"/>
</linearGradient>
</defs>
</svg>
