<svg width="24" height="24" viewBox="0 0 24 24" fill="none" xmlns="http://www.w3.org/2000/svg">
<g id="notifications_active">
<rect id="Bounding box" width="24" height="24" rx="4" fill="#00CB47"/>
<g id="Group 44">
<path id="Vector 67" d="M4 8.57143V6C4 4.89543 4.89543 4 6 4H8.57143" stroke="white" stroke-width="1.4" stroke-linecap="round"/>
<path id="Vector 69" d="M4 15.4286V18C4 19.1046 4.89543 20 6 20H8.57143" stroke="white" stroke-width="1.4" stroke-linecap="round"/>
<path id="Vector 68" d="M20 8.57143V6C20 4.89543 19.1046 4 18 4H15.4286" stroke="white" stroke-width="1.4" stroke-linecap="round"/>
<path id="Vector 70" d="M20 15.4286V18C20 19.1046 19.1046 20 18 20H15.4286" stroke="white" stroke-width="1.4" stroke-linecap="round"/>
<path id="Vector 71" d="M8.57227 11.4285V9.71423" stroke="white" stroke-width="1.4" stroke-linecap="round"/>
<path id="Vector 72" d="M15.4277 11.4285V9.71423" stroke="white" stroke-width="1.4" stroke-linecap="round"/>
<path id="Vector 73" d="M12.2854 9.42859V12.5714C12.2854 13.2026 11.7738 13.7143 11.1426 13.7143V13.7143" stroke="white" stroke-width="1.4" stroke-linecap="round"/>
<path id="Vector 74" d="M9.42773 15.4286L9.75513 15.756C10.1035 16.1044 10.5282 16.3668 10.9956 16.5226V16.5226C11.647 16.7398 12.3513 16.7398 13.0027 16.5226V16.5226C13.4701 16.3668 13.8948 16.1044 14.2432 15.756L14.5706 15.4286" stroke="white" stroke-width="1.4" stroke-linecap="round"/>
</g>
</g>
</svg>
