<svg width="36" height="36" viewBox="0 0 36 36" fill="none" xmlns="http://www.w3.org/2000/svg">
<path d="M2 11.1429V6C2 3.79086 3.79086 2 6 2H11.1429" stroke="#6EC531" stroke-width="2.8" stroke-linecap="round"/>
<path d="M2 24.8571V30C2 32.2091 3.79086 34 6 34H11.1429" stroke="#6EC531" stroke-width="2.8" stroke-linecap="round"/>
<path d="M34 11.1429V6C34 3.79086 32.2091 2 30 2H24.8571" stroke="#6EC531" stroke-width="2.8" stroke-linecap="round"/>
<path d="M34 24.8571V30C34 32.2091 32.2091 34 30 34H24.8571" stroke="#6EC531" stroke-width="2.8" stroke-linecap="round"/>
<path d="M11.1426 16.8571V13.4285" stroke="#6EC531" stroke-width="2.8" stroke-linecap="round"/>
<path d="M24.8574 16.8571V13.4285" stroke="#6EC531" stroke-width="2.8" stroke-linecap="round"/>
<path d="M18.5715 12.8572V19.9286C18.5715 20.757 17.8999 21.4286 17.0715 21.4286H16.2858" stroke="#6EC531" stroke-width="2.8" stroke-linecap="round"/>
<path d="M12.8574 24.8572L13.5122 25.512C14.209 26.2087 15.0584 26.7337 15.9932 27.0453V27.0453C17.296 27.4796 18.7046 27.4796 20.0074 27.0453V27.0453C20.9422 26.7337 21.7916 26.2087 22.4883 25.512L23.1431 24.8572" stroke="#6EC531" stroke-width="2.8" stroke-linecap="round"/>
</svg>
