<svg width="200" height="196" viewBox="0 0 200 196" fill="none" xmlns="http://www.w3.org/2000/svg">
<path d="M60.625 66.5H62.125V65V49.2857C62.125 39.2654 66.1146 29.6548 73.2171 22.5684C80.3198 15.4818 89.9538 11.5 100 11.5C104.974 11.5 109.9 12.4775 114.495 14.3767C119.091 16.2759 123.266 19.0595 126.783 22.5684C130.3 26.0773 133.089 30.2427 134.992 34.8269C136.896 39.411 137.875 44.3241 137.875 49.2857V65V66.5H139.375H147.25C151.03 66.5 154.655 67.9984 157.327 70.6645C159.999 73.3304 161.5 76.9455 161.5 80.7143V159.286C161.5 163.054 159.999 166.67 157.327 169.336C154.655 172.002 151.03 173.5 147.25 173.5H52.75C48.9696 173.5 45.3447 172.002 42.6725 169.336C40.0005 166.67 38.5 163.054 38.5 159.286V80.7143C38.5 76.9455 40.0005 73.3304 42.6725 70.6645C45.3447 67.9984 48.9696 66.5 52.75 66.5H60.625ZM124.412 66.5H125.912V65V49.2857C125.912 35.0184 114.291 23.4286 100 23.4286C85.7085 23.4286 74.0875 35.0184 74.0875 49.2857V65V66.5H75.5875H124.412ZM119.977 88.3292L119.97 88.3239L119.963 88.3186C115.368 84.8374 109.105 83.1429 101.496 83.1429C94.2993 83.1429 88.3908 84.5937 83.8181 87.6334C79.2807 90.5992 76.8601 95.438 76.9592 100.948C76.9843 102.342 78.1425 103.35 79.4313 103.35H93.015C94.437 103.35 95.421 102.218 95.5619 101.029C95.7187 99.7042 96.2542 98.749 96.9905 98.082C98.283 97.1978 99.6946 96.75 101.496 96.75C103.715 96.75 105.389 97.3239 106.422 98.3547L106.437 98.3699L106.453 98.3845C107.523 99.3935 108.108 100.703 108.108 102.714C108.108 104.597 107.577 106.257 106.656 107.652C105.453 109.194 103.972 110.458 102.125 111.45L102.087 111.471L102.05 111.493C97.885 114.05 95.0705 116.342 93.281 118.382L93.2567 118.41L93.2337 118.439C91.6039 120.493 90.7761 123.218 90.644 126.802C90.591 128.239 91.7593 129.357 93.125 129.357H106.875C108.278 129.357 109.325 128.232 109.401 126.946C109.493 125.391 109.822 124.183 110.31 123.202C110.823 122.246 111.861 121.258 113.761 120.156C117.531 118.429 120.7 116.105 123.138 113.085L123.145 113.077L123.151 113.069C125.611 109.938 126.936 106.555 126.936 102.714C126.936 96.7626 124.605 91.9205 119.977 88.3292ZM93.125 134.214C91.7443 134.214 90.625 135.334 90.625 136.714V150.429C90.625 151.809 91.7443 152.929 93.125 152.929H106.875C108.256 152.929 109.375 151.809 109.375 150.429V136.714C109.375 135.334 108.256 134.214 106.875 134.214H93.125Z" fill="#BFDAE6" stroke="#2E66AB" stroke-width="3"/>
</svg>
