<svg width="24" height="24" viewBox="0 0 24 24" fill="none" xmlns="http://www.w3.org/2000/svg">
<g id="help">
<rect id="Bounding box" width="24" height="24" rx="4" fill="#31A7E0"/>
<path id="help_2" d="M11.96 16.8C12.24 16.8 12.4767 16.7033 12.67 16.51C12.8633 16.3167 12.96 16.08 12.96 15.8C12.96 15.52 12.8633 15.2833 12.67 15.09C12.4767 14.8967 12.24 14.8 11.96 14.8C11.68 14.8 11.4433 14.8967 11.25 15.09C11.0567 15.2833 10.96 15.52 10.96 15.8C10.96 16.08 11.0567 16.3167 11.25 16.51C11.4433 16.7033 11.68 16.8 11.96 16.8ZM11.2717 12.9809C11.2311 13.3875 11.5713 13.72 11.98 13.72C12.3887 13.72 12.7016 13.3844 12.7827 12.9838C12.8055 12.8709 12.8346 12.7696 12.87 12.68C12.97 12.4267 13.2533 12.08 13.72 11.64C14.0667 11.2933 14.34 10.9633 14.54 10.65C14.74 10.3367 14.84 9.96 14.84 9.52C14.84 8.77333 14.5667 8.2 14.02 7.8C13.4733 7.4 12.8267 7.2 12.08 7.2C11.32 7.2 10.7033 7.4 10.23 7.8C9.93348 8.05058 9.69322 8.33255 9.5092 8.64591C9.32366 8.96186 9.50705 9.3452 9.84795 9.4795C10.2286 9.62945 10.672 9.41497 10.9214 9.09062C10.9494 9.0541 10.979 9.01723 11.01 8.98C11.2433 8.7 11.6 8.56 12.08 8.56C12.5067 8.56 12.8267 8.67667 13.04 8.91C13.2533 9.14333 13.36 9.4 13.36 9.68C13.36 9.94667 13.28 10.1967 13.12 10.43C12.96 10.6633 12.76 10.88 12.52 11.08C11.9333 11.6 11.5733 11.9933 11.44 12.26C11.3597 12.4205 11.3036 12.6608 11.2717 12.9809ZM12 20C10.8933 20 9.85333 19.79 8.88 19.37C7.90667 18.95 7.06 18.38 6.34 17.66C5.62 16.94 5.05 16.0933 4.63 15.12C4.21 14.1467 4 13.1067 4 12C4 10.8933 4.21 9.85333 4.63 8.88C5.05 7.90667 5.62 7.06 6.34 6.34C7.06 5.62 7.90667 5.05 8.88 4.63C9.85333 4.21 10.8933 4 12 4C13.1067 4 14.1467 4.21 15.12 4.63C16.0933 5.05 16.94 5.62 17.66 6.34C18.38 7.06 18.95 7.90667 19.37 8.88C19.79 9.85333 20 10.8933 20 12C20 13.1067 19.79 14.1467 19.37 15.12C18.95 16.0933 18.38 16.94 17.66 17.66C16.94 18.38 16.0933 18.95 15.12 19.37C14.1467 19.79 13.1067 20 12 20Z" fill="white"/>
</g>
</svg>
