<svg width="109" height="108" viewBox="0 0 109 108" fill="none" xmlns="http://www.w3.org/2000/svg">
<mask id="mask0_143_467" style="mask-type:luminance" maskUnits="userSpaceOnUse" x="0" y="0" width="109" height="108">
<path fill-rule="evenodd" clip-rule="evenodd" d="M0.752197 0.667725H108.035V107.067H0.752197V0.667725Z" fill="white"/>
</mask>
<g mask="url(#mask0_143_467)">
<path fill-rule="evenodd" clip-rule="evenodd" d="M31.1209 8.66666C17.5706 8.66666 8.8147 17.8773 8.8147 32.128V75.6053C8.8147 89.8613 17.5706 99.0667 31.1209 99.0667H77.6147C91.1973 99.0667 99.9747 89.8613 99.9747 75.6053V32.128C99.9747 17.8773 91.1973 8.66666 77.6147 8.66666H31.1209ZM77.6147 107.067H31.1209C12.9534 107.067 0.752197 94.4213 0.752197 75.6053V32.128C0.752197 13.312 12.9534 0.666656 31.1209 0.666656H77.6147C95.8091 0.666656 108.037 13.312 108.037 32.128V75.6053C108.037 94.4213 95.8091 107.067 77.6147 107.067Z" fill="#61646B" fill-opacity="0.5"/>
</g>
<path fill-rule="evenodd" clip-rule="evenodd" d="M18.3875 81.6288C17.3877 81.6288 16.3934 81.2661 15.614 80.5301C13.9961 79.0154 13.9316 76.4768 15.4635 74.8821L23.6765 66.2794C28.0249 61.6981 35.3617 61.4741 40.0004 65.7941L45.1496 70.9781C46.5847 72.4181 48.9175 72.4448 50.358 71.0368C50.9009 70.4021 62.6076 56.2954 62.6076 56.2954C64.8328 53.6181 67.9719 51.9648 71.4602 51.6234C74.954 51.3194 78.3456 52.3274 81.0492 54.5301C81.2803 54.7168 81.49 54.8981 93.2935 66.9248C94.8468 68.5034 94.82 71.0368 93.2236 72.5781C91.6326 74.1301 89.0741 74.0821 87.5207 72.5034C87.5207 72.5034 76.5073 61.2874 75.7226 60.5301C74.8895 59.8528 73.5511 59.4581 72.2342 59.5861C70.8959 59.7194 69.6918 60.3541 68.8372 61.3834C56.3457 76.4181 56.1952 76.5621 55.991 76.7594C51.3792 81.2501 43.9349 81.1754 39.4037 76.5888C39.4037 76.5888 34.405 71.5541 34.319 71.4528C33.0774 70.3114 30.8629 70.3861 29.5352 71.7781L21.3115 80.3808C20.516 81.2128 19.4517 81.6288 18.3875 81.6288Z" fill="#61646B" fill-opacity="0.5"/>
<path fill-rule="evenodd" clip-rule="evenodd" d="M35.9971 33.3541C33.0247 33.3541 30.606 35.7541 30.606 38.7088C30.606 41.6635 33.0247 44.0688 36.0025 44.0688C38.9802 44.0688 41.4043 41.6635 41.4043 38.7088C41.4043 35.7595 38.9802 33.3595 35.9971 33.3541ZM36.0025 52.0688C28.5796 52.0688 22.5435 46.0741 22.5435 38.7088C22.5435 31.3435 28.5796 25.3541 36.0025 25.3541C43.4307 25.3595 49.4668 31.3541 49.4668 38.7088C49.4668 46.0741 43.4253 52.0688 36.0025 52.0688Z" fill="#61646B" fill-opacity="0.5"/>
</svg>
