<svg width="24" height="24" viewBox="0 0 24 24" fill="none" xmlns="http://www.w3.org/2000/svg">
<g id="globe">
<rect id="Bounding box" width="24" height="24" rx="4" fill="#B74FE2"/>
<path id="globe_2" d="M12 20C10.8933 20 9.85333 19.79 8.88 19.37C7.90667 18.95 7.06 18.38 6.34 17.66C5.62 16.94 5.05 16.0933 4.63 15.12C4.21 14.1467 4 13.1067 4 12C4 10.8933 4.21 9.85333 4.63 8.88C5.05 7.90667 5.62 7.06 6.34 6.34C7.06 5.62 7.90667 5.05 8.88 4.63C9.85333 4.21 10.8933 4 12 4C13.1067 4 14.1467 4.21 15.12 4.63C16.0933 5.05 16.94 5.62 17.66 6.34C18.38 7.06 18.95 7.90667 19.37 8.88C19.79 9.85333 20 10.8933 20 12C20 13.1067 19.79 14.1467 19.37 15.12C18.95 16.0933 18.38 16.94 17.66 17.66C16.94 18.38 16.0933 18.95 15.12 19.37C14.1467 19.79 13.1067 20 12 20ZM12 18.4C13.7867 18.4 15.3 17.78 16.54 16.54C17.78 15.3 18.4 13.7867 18.4 12C18.4 11.9067 18.3967 11.81 18.39 11.71C18.3833 11.61 18.38 11.5267 18.38 11.46C18.3133 11.8467 18.1333 12.1667 17.84 12.42C17.5467 12.6733 17.2 12.8 16.8 12.8H15.2C14.76 12.8 14.3833 12.6433 14.07 12.33C13.7567 12.0167 13.6 11.64 13.6 11.2V10.4H10.4V8.8C10.4 8.36 10.5567 7.98333 10.87 7.67C11.1833 7.35667 11.56 7.2 12 7.2H12.8C12.8 6.89333 12.8833 6.62333 13.05 6.39C13.2167 6.15667 13.42 5.96667 13.66 5.82C13.3933 5.75333 13.1233 5.7 12.85 5.66C12.5767 5.62 12.2933 5.6 12 5.6C10.2133 5.6 8.7 6.22 7.46 7.46C6.22 8.7 5.6 10.2133 5.6 12H9.6C10.48 12 11.2333 12.3133 11.86 12.94C12.4867 13.5667 12.8 14.32 12.8 15.2V16H10.4V18.2C10.6667 18.2667 10.93 18.3167 11.19 18.35C11.45 18.3833 11.72 18.4 12 18.4Z" fill="white"/>
</g>
</svg>
