<svg width="24" height="24" viewBox="0 0 24 24" fill="none" xmlns="http://www.w3.org/2000/svg">
<g id="lightbulb">
<rect id="Bounding box" width="24" height="24" rx="4" fill="#FBCD00"/>
<path id="lightbulb_2" d="M12 20C11.56 20 11.1833 19.8433 10.87 19.53C10.3787 19.0387 10.9632 18.4 11.658 18.4H12.342C13.0368 18.4 13.6213 19.0387 13.13 19.53C12.8167 19.8433 12.44 20 12 20ZM9.6 17.6C9.15817 17.6 8.8 17.2418 8.8 16.8C8.8 16.3582 9.15817 16 9.6 16H14.4C14.8418 16 15.2 16.3582 15.2 16.8C15.2 17.2418 14.8418 17.6 14.4 17.6H9.6ZM10.0987 15.2C9.37957 15.2 8.65343 15.0296 8.10792 14.5609C7.59458 14.1199 7.16194 13.5996 6.81 13C6.27 12.08 6 11.08 6 10C6 8.33333 6.58333 6.91667 7.75 5.75C8.91667 4.58333 10.3333 4 12 4C13.6667 4 15.0833 4.58333 16.25 5.75C17.4167 6.91667 18 8.33333 18 10C18 11.08 17.73 12.08 17.19 13C16.8381 13.5996 16.4054 14.1199 15.8921 14.5609C15.3466 15.0296 14.6204 15.2 13.9013 15.2H10.0987Z" fill="white"/>
</g>
</svg>
