<svg width="116" height="128" viewBox="0 0 116 128" fill="none" xmlns="http://www.w3.org/2000/svg">
<path d="M77.2452 45.4974L77.2765 45.5448C77.2987 45.5784 77.3467 45.5818 77.3733 45.5516L77.8809 44.9764C78.1925 44.6232 78.4605 44.2338 78.679 43.8166C78.9613 43.2777 79.158 42.6983 79.2623 42.0989L79.2819 41.9861C79.3468 41.6126 79.3795 41.2342 79.3795 40.8551V40.1208L79.343 39.5368C79.2759 38.4634 79.1275 37.3968 78.8991 36.3459L78.2127 34.2869L77.0459 31.1983L75.3987 28.1784L73.477 25.2272L71.2807 22.3445L68.3294 19.3246L65.5841 16.9225L62.6328 14.7948L60.2992 13.4221L58.7098 12.4949C58.1235 12.1529 57.5068 11.8659 56.8675 11.6376L53.8477 10.5395L50.8278 9.71588L48.0138 9.30408L44.788 9.16681L42.3171 9.30408L40.0522 9.64725L36.7477 10.3983C35.9332 10.5834 35.1409 10.8556 34.3846 11.2101C33.6807 11.5401 33.0116 11.9396 32.3873 12.4028L31.8676 12.7883C31.4221 13.1189 31.0015 13.4818 30.6092 13.8741C29.9974 14.4859 29.4578 15.1658 29.0011 15.9007L28.6424 16.4776C28.2881 17.0475 27.9859 17.6483 27.7395 18.2725C27.3029 19.3786 27.0458 20.5474 26.978 21.7347L26.9431 22.3445L26.9981 23.2513C27.0527 24.1519 27.2382 25.0398 27.5488 25.8869C27.7395 26.4069 27.9762 26.9088 28.2563 27.3866L28.3392 27.528C28.7796 28.2793 29.3068 28.9763 29.91 29.6045L30.6494 30.3747L32.9143 32.6396L35.0419 34.4241L37.5128 36.5518L40.6699 39.1599L43.1676 41.1975C43.2118 41.2335 43.278 41.2021 43.278 41.1451V39.8864C43.278 39.1785 43.399 38.4758 43.6357 37.8086C43.8982 37.0689 44.2984 36.3857 44.8153 35.795L45.1297 35.4357C45.3589 35.1737 45.6121 34.9336 45.8858 34.7185C46.2506 34.4318 46.6496 34.1915 47.0736 34.0031L47.2109 33.9421C47.517 33.8061 47.8326 33.6928 48.1552 33.6032L48.906 33.3946C50.093 33.1664 51.2989 33.0514 52.5077 33.0514H52.7495H53.9849L55.0831 33.1201L57.0735 33.4633L58.8579 33.8751L60.917 34.4928L62.9073 35.1791L65.1723 36.0713L67.4372 37.1695L69.3589 38.199L71.1434 39.4344L71.8018 39.8964C73.9517 41.4052 75.7984 43.3052 77.2452 45.4974Z" fill="url(#paint0_linear_104_1397)" stroke="#1E3F68" stroke-width="1.5"/>
<path d="M77.2452 82.1703L77.2765 82.1228C77.2987 82.0892 77.3467 82.0859 77.3733 82.116L77.8809 82.6913C78.1925 83.0444 78.4605 83.4338 78.679 83.851C78.9613 84.3899 79.158 84.9694 79.2623 85.5687L79.2819 85.6815C79.3468 86.055 79.3795 86.4335 79.3795 86.8126V87.5469L79.343 88.1309C79.2759 89.2042 79.1275 90.2709 78.8991 91.3218L78.2127 93.3808L77.0459 96.4693L75.3987 99.4892L73.477 102.44L71.2807 105.323L68.3294 108.343L65.5841 110.745L62.6328 112.873L60.2992 114.246L58.7098 115.173C58.1235 115.515 57.5068 115.802 56.8675 116.03L53.8477 117.128L50.8278 117.952L48.0138 118.364L44.788 118.501L42.3171 118.364L40.0522 118.02L36.7477 117.269C35.9332 117.084 35.1409 116.812 34.3846 116.458C33.6807 116.128 33.0116 115.728 32.3873 115.265L31.8676 114.879C31.4221 114.549 31.0015 114.186 30.6092 113.794C29.9974 113.182 29.4578 112.502 29.0011 111.767L28.6424 111.19C28.2881 110.62 27.9859 110.019 27.7395 109.395C27.3029 108.289 27.0458 107.12 26.978 105.933L26.9431 105.323L26.9981 104.416C27.0527 103.516 27.2382 102.628 27.5488 101.781C27.7395 101.261 27.9762 100.759 28.2563 100.281L28.3392 100.14C28.7796 99.3883 29.3068 98.6914 29.91 98.0631L30.6494 97.2929L32.9143 95.028L35.0419 93.2435L37.5128 91.1159L40.6699 88.5078L43.1676 86.4701C43.2118 86.4341 43.278 86.4655 43.278 86.5225V87.7813C43.278 88.4892 43.399 89.1919 43.6357 89.859C43.8982 90.5987 44.2984 91.2819 44.8153 91.8726L45.1297 92.2319C45.3589 92.4939 45.6121 92.734 45.8858 92.9491C46.2506 93.2358 46.6496 93.4761 47.0736 93.6645L47.2109 93.7256C47.517 93.8616 47.8326 93.9748 48.1552 94.0645L48.906 94.273C50.093 94.5013 51.299 94.6162 52.5077 94.6162H52.7495H53.9849L55.0831 94.5476L57.0735 94.2044L58.8579 93.7926L60.917 93.1749L62.9073 92.4885L65.1723 91.5963L67.4372 90.4981L69.3589 89.4686L71.1434 88.2332L71.8018 87.7712C73.9517 86.2625 75.7984 84.3624 77.2452 82.1703Z" fill="url(#paint1_linear_104_1397)" stroke="#1E3F68" stroke-width="1.5"/>
<path d="M76.4666 55.8379H106.253C107.16 55.8379 107.843 55.0127 107.673 54.1218L106.902 50.0727L105.529 45.5428L103.47 40.5325L100.931 35.5222L98.048 31.061L94.9595 27.1489L92.9005 24.9526L90.7042 22.7563L87.3411 19.8737L85.2821 18.3637L83.1545 16.9224L79.9287 14.932L76.7715 13.2848L73.8889 11.9808L70.114 10.6081L66.8196 9.57858L62.0152 8.61771L59.613 8.2059L57.2794 8H48.2884L43.5526 8.54907L39.2287 9.44131L35.5225 10.6767L39.0125 9.87693C41.0718 9.405 43.2047 9.16678 45.3174 9.16678C46.6897 9.16678 48.0775 9.26945 49.4344 9.47392C51.4099 9.77159 53.347 10.2835 55.2116 11.0007L57.7599 11.9808C60.9129 13.7172 63.9359 15.68 66.805 17.8536L67.0255 18.0206L67.5796 18.5652C69.8608 20.807 71.9699 23.2175 73.8889 25.7762L75.4733 28.3555C76.3824 29.8354 77.1453 31.4002 77.7514 33.0279L78.512 35.0708C78.9958 36.3702 79.2706 37.738 79.326 39.1234L79.387 40.65C79.4273 41.6563 79.2355 42.6584 78.8264 43.5788C78.6921 43.8811 78.5351 44.1728 78.3568 44.4514L78.3278 44.4967C77.799 45.3228 77.1087 46.0336 76.2983 46.5861L74.5066 47.8077L73.3707 48.6596C73.0321 48.9136 72.7377 49.2216 72.4993 49.5713C72.0631 50.211 71.8299 50.9672 71.8299 51.7414V51.7943C71.8299 52.5096 72.0206 53.212 72.3823 53.8291L72.5654 54.1414C72.846 54.62 73.2682 54.9997 73.7738 55.228L73.9009 55.2854C74.7073 55.6496 75.5819 55.8379 76.4666 55.8379Z" fill="url(#paint2_linear_104_1397)" stroke="#1E3F68" stroke-width="1.5"/>
<path d="M76.4666 71.8983L106.253 71.8983C107.16 71.8983 107.843 72.7235 107.673 73.6144L106.902 77.6635L105.529 82.1934L103.47 87.2037L100.931 92.214L98.048 96.6752L94.9595 100.587L92.9005 102.784L90.7042 104.98L87.3411 107.863L85.2821 109.372L83.1545 110.814L79.9287 112.804L76.7715 114.451L73.8889 115.755L70.114 117.128L66.8196 118.089L62.0152 119.118L59.613 119.393L57.2794 119.53L48.2884 119.53L47.8478 119.492C44.9886 119.243 42.1529 118.774 39.366 118.089L35.5225 117.059L39.0125 117.859C41.0718 118.331 43.2047 118.569 45.3174 118.569C46.6897 118.569 48.0775 118.467 49.4344 118.262C51.4099 117.965 53.347 117.453 55.2116 116.736L57.7599 115.755C60.9129 114.019 63.9359 112.056 66.8051 109.883L67.0255 109.716L67.5796 109.171C69.8608 106.929 71.9699 104.519 73.8889 101.96L75.4733 99.3807C76.3824 97.9008 77.1453 96.336 77.7514 94.7083L78.512 92.6654C78.9958 91.366 79.2706 89.9982 79.326 88.6128L79.387 87.0862C79.4273 86.0799 79.2355 85.0778 78.8264 84.1574C78.6921 83.8551 78.5351 83.5634 78.3568 83.2848L78.3278 83.2395C77.799 82.4134 77.1087 81.7027 76.2983 81.1501L74.5066 79.9285L73.3707 79.0766C73.0321 78.8226 72.7377 78.5146 72.4993 78.1649C72.0631 77.5252 71.8299 76.769 71.8299 75.9948V75.9419C71.8299 75.2266 72.0206 74.5242 72.3823 73.9071L72.5654 73.5948C72.846 73.1162 73.2682 72.7365 73.7738 72.5082L73.9009 72.4508C74.7073 72.0866 75.5819 71.8983 76.4666 71.8983Z" fill="url(#paint3_linear_104_1397)" stroke="#1E3F68" stroke-width="1.5"/>
<path d="M32.0219 115.755L35.5222 117.059L33.3946 115.893L32.534 115.309C31.8281 114.83 31.1692 114.285 30.566 113.682C29.9367 113.052 29.3711 112.362 28.8774 111.622L28.5216 111.088L28.1358 110.287C27.799 109.587 27.5319 108.856 27.3386 108.104L27.3293 108.068C27.1182 107.247 26.9987 106.405 26.973 105.558L26.9697 105.449C26.9519 104.863 26.9847 104.276 27.0676 103.696L27.0859 103.567C27.1734 102.955 27.3241 102.353 27.5355 101.772C27.6894 101.349 27.8748 100.938 28.0904 100.543L28.1637 100.408C28.4476 99.8878 28.7731 99.3912 29.1371 98.9232L29.5511 98.3909L32.1592 95.7142L34.7673 93.4493L42.825 86.7785C43.0351 86.6046 43.2316 86.4149 43.4128 86.211C43.5971 86.0037 43.7972 85.811 44.0114 85.6346L49.5236 81.0951L53.0239 77.8693L56.1811 74.8494L59.4069 71.0059L59.923 70.3268C60.447 69.6374 60.9012 68.8976 61.279 68.1184L61.3897 67.8902C61.6687 67.3148 61.8937 66.7147 62.062 66.0977L62.1302 65.8478C62.327 65.126 62.4268 64.3812 62.4268 63.633V63.4144C62.4268 63.0313 62.3907 62.6491 62.319 62.2728C62.2084 61.6921 62.014 61.1306 61.7419 60.6059L60.9934 59.1623C60.486 58.1837 59.8858 57.256 59.2011 56.392L57.3479 54.0533L54.6025 51.308L50.1413 47.1899L43.2093 41.2188L36.0027 35.2476L33.9437 33.5318L32.2278 31.9532L31.1297 30.855L29.6883 29.3451L29.1477 28.6693C28.7768 28.2056 28.4472 27.7102 28.1628 27.1889L28.1113 27.0945C27.8819 26.6738 27.6871 26.2352 27.5288 25.783C27.3673 25.3216 27.2444 24.8477 27.1614 24.366L27.117 24.1088C27.0012 23.4371 26.943 22.7567 26.943 22.0751V21.9326L27.0803 20.7658L27.2862 19.7363L27.5282 18.9834C27.7783 18.2053 28.0874 17.4475 28.4529 16.7164L29.2079 15.5497L29.9629 14.5201L30.1546 14.3137C30.6207 13.8117 31.1308 13.3525 31.6787 12.9416L32.5666 12.3581C33.5747 11.6956 34.6316 11.1106 35.7281 10.608L34.1496 11.0884L30.3061 12.5984L26.1194 14.726L24.129 15.8242L21.2464 17.6087L19.7364 18.7755L16.7852 21.0404L14.1084 23.5798L12.1867 25.7761C11.1813 27.1927 10.2789 28.6796 9.4862 30.2253L9.30405 30.5805L8.48044 32.8454C8.25197 33.8964 8.10135 34.9628 8.02981 36.0359L8 36.483L8.0268 36.8984C8.10022 38.0365 8.29838 39.1631 8.61771 40.2579C8.93725 41.2165 9.34899 42.1419 9.84717 43.021L10.2649 43.7582L11.9121 46.1604L14.1084 48.7685L15.6184 50.4844L17.1283 52.2002L18.501 53.9847L19.8737 55.9751L20.615 57.4578C20.944 58.1156 21.2232 58.7971 21.4506 59.4966C21.8164 60.6223 22.0455 61.7879 22.133 62.9684L22.1386 63.0444V63.8268C22.1386 64.5395 22.0833 65.2512 21.9733 65.9554C21.8549 66.713 21.6736 67.4594 21.4311 68.1869L21.1777 68.9469C20.3559 70.6819 19.375 72.337 18.2476 73.8909L17.4029 75.0554L13.4907 79.4479L11.5003 82.056L10.5637 83.4422C10.0454 84.2093 9.60051 85.0248 9.23581 85.8757C8.91604 86.6219 8.65854 87.3941 8.46668 88.1829L8.4332 88.3205C8.23636 89.1298 8.11684 89.9559 8.07626 90.7877L8.07149 90.8856C8.024 91.8592 8.09216 92.8349 8.27454 93.7924L8.5555 94.8141C8.87082 95.9607 9.29258 97.0754 9.81528 98.1435C10.3426 99.2212 10.9704 100.247 11.6903 101.207L12.0494 101.685L12.9416 102.784L14.1084 104.088L16.6479 106.49L18.9814 108.411L21.6582 110.265L24.3349 111.912L27.7666 113.765L32.0219 115.755Z" fill="url(#paint4_linear_104_1397)" stroke="#1E3F68" stroke-width="1.5"/>
<defs>
<linearGradient id="paint0_linear_104_1397" x1="53.1613" y1="9.16681" x2="53.1613" y2="45.6115" gradientUnits="userSpaceOnUse">
<stop stop-color="#0B2442"/>
<stop offset="0.56343" stop-color="#1C5CA8"/>
</linearGradient>
<linearGradient id="paint1_linear_104_1397" x1="53.1613" y1="118.501" x2="53.1613" y2="82.0562" gradientUnits="userSpaceOnUse">
<stop stop-color="#0B2442"/>
<stop offset="0.56343" stop-color="#1C5CA8"/>
</linearGradient>
<linearGradient id="paint2_linear_104_1397" x1="71.7612" y1="8" x2="71.7612" y2="55.8379" gradientUnits="userSpaceOnUse">
<stop stop-color="#59A5FF"/>
<stop offset="1" stop-color="#1C5CA8"/>
</linearGradient>
<linearGradient id="paint3_linear_104_1397" x1="71.7612" y1="119.53" x2="71.7612" y2="71.8983" gradientUnits="userSpaceOnUse">
<stop stop-color="#59A5FF"/>
<stop offset="1" stop-color="#1C5CA8"/>
</linearGradient>
<linearGradient id="paint4_linear_104_1397" x1="35.2134" y1="10.608" x2="35.2134" y2="117.059" gradientUnits="userSpaceOnUse">
<stop stop-color="#59A5FF"/>
<stop offset="1" stop-color="#1C5CA8"/>
</linearGradient>
</defs>
</svg>
