<svg width="24" height="24" viewBox="0 0 24 24" fill="none" xmlns="http://www.w3.org/2000/svg">
<g id="notifications_active">
<rect id="Bounding box" width="24" height="24" rx="4" fill="#FF3A2B"/>
<path id="notifications_active_2" d="M5.6 17.606V16.01H7.2V10.4239C7.2 9.32003 7.53333 8.33915 8.2 7.4813C8.86667 6.62344 9.73333 6.06151 10.8 5.79551V5.23691C10.8 4.90441 10.9167 4.62178 11.15 4.38903C11.3833 4.15628 11.6667 4.0399 12 4.0399C12.3333 4.0399 12.6167 4.15628 12.85 4.38903C13.0833 4.62178 13.2 4.90441 13.2 5.23691V5.79551C14.2667 6.06151 15.1333 6.62344 15.8 7.4813C16.4667 8.33915 16.8 9.32003 16.8 10.4239V16.01H18.4V17.606H5.6ZM12 20C11.56 20 11.1833 19.8437 10.87 19.5312C10.5567 19.2186 10.4 18.8429 10.4 18.404H13.6C13.6 18.8429 13.4433 19.2186 13.13 19.5312C12.8167 19.8437 12.44 20 12 20ZM4 10.4239C4 9.09393 4.29667 7.87365 4.89 6.76309C5.48333 5.65254 6.28 4.7315 7.28 4L8.22 5.27681C7.42 5.86201 6.78333 6.60017 6.31 7.49127C5.83667 8.38238 5.6 9.35993 5.6 10.4239H4ZM18.4 10.4239C18.4 9.35993 18.1633 8.38238 17.69 7.49127C17.2167 6.60017 16.58 5.86201 15.78 5.27681L16.72 4C17.72 4.7315 18.5167 5.65254 19.11 6.76309C19.7033 7.87365 20 9.09393 20 10.4239H18.4Z" fill="white"/>
</g>
</svg>
