<svg width="24" height="24" viewBox="0 0 24 24" fill="none" xmlns="http://www.w3.org/2000/svg">
<g id="shield_locked">
<rect id="Bounding box" width="24" height="24" rx="4" fill="#FF8D00"/>
<g id="key">
<mask id="mask0_260_3247" style="mask-type:alpha" maskUnits="userSpaceOnUse" x="3" y="3" width="18" height="18">
<rect id="Bounding box_2" x="3" y="3" width="18" height="18" fill="#D9D9D9"/>
</mask>
<g mask="url(#mask0_260_3247)">
<path id="key_2" d="M8.24902 14.25C8.87402 14.25 9.40527 14.0312 9.84277 13.5938C10.2803 13.1562 10.499 12.625 10.499 12C10.499 11.375 10.2803 10.8438 9.84277 10.4062C9.40527 9.96875 8.87402 9.75 8.24902 9.75C7.62402 9.75 7.09277 9.96875 6.65527 10.4062C6.21777 10.8438 5.99902 11.375 5.99902 12C5.99902 12.625 6.21777 13.1562 6.65527 13.5938C7.09277 14.0312 7.62402 14.25 8.24902 14.25ZM8.24902 16.5C6.99902 16.5 5.93652 16.0625 5.06152 15.1875C4.18652 14.3125 3.74902 13.25 3.74902 12C3.74902 10.75 4.18652 9.6875 5.06152 8.8125C5.93652 7.9375 6.99902 7.5 8.24902 7.5C9.26152 7.5 10.1459 7.7875 10.9021 8.3625C11.6584 8.9375 12.1865 9.65 12.4865 10.5H18.7678L20.249 11.9812L17.624 14.9813L15.749 13.5L14.249 15L12.749 13.5H12.4865C12.174 14.4 11.6303 15.125 10.8553 15.675C10.0803 16.225 9.21152 16.5 8.24902 16.5Z" fill="white"/>
</g>
</g>
</g>
</svg>
