<svg width="200" height="196" viewBox="0 0 200 196" fill="none" xmlns="http://www.w3.org/2000/svg">
<g clip-path="url(#clip0_205_2527)">
<path d="M181.833 47.9982V48V148C181.833 152.183 180.363 155.728 177.38 158.715C174.399 161.702 170.856 163.172 166.669 163.167H166.667H33.3334C29.1506 163.167 25.6091 161.696 22.6273 158.714C19.6457 155.733 18.172 152.188 18.1667 147.999V48C18.1667 43.8181 19.6394 40.2769 22.6264 37.2949C25.6147 34.3117 29.1574 32.8386 33.3343 32.8334H166.667C170.849 32.8334 174.393 34.3062 177.381 37.294C180.369 40.2819 181.838 43.823 181.833 47.9982ZM183.333 48V148C183.333 152.583 181.703 156.508 178.442 159.775C175.181 163.042 171.256 164.672 166.667 164.667H33.3334C28.75 164.667 24.8278 163.036 21.5667 159.775C18.3056 156.514 16.6722 152.589 16.6667 148L183.333 48ZM91.25 109.629L80.8523 99.231C78.9038 97.2825 76.5082 96.2917 73.75 96.2917C70.9919 96.2917 68.5962 97.2825 66.6477 99.231C64.6992 101.18 63.7084 103.575 63.7084 106.333C63.7084 109.092 64.6992 111.487 66.6477 113.436L84.356 131.144C86.2851 133.073 88.604 134.083 91.25 134.083C93.8961 134.083 96.215 133.073 98.144 131.144L133.352 95.9357C135.301 93.9872 136.292 91.5915 136.292 88.8334C136.292 86.0752 135.301 83.6796 133.352 81.731C131.404 79.7825 129.008 78.7917 126.25 78.7917C123.492 78.7917 121.096 79.7825 119.148 81.731L91.25 109.629ZM31.8334 63.6667C31.8334 65.0474 32.9526 66.1667 34.3334 66.1667H165.667C167.047 66.1667 168.167 65.0474 168.167 63.6667V49C168.167 47.6193 167.047 46.5 165.667 46.5H34.3334C32.9526 46.5 31.8334 47.6193 31.8334 49V63.6667Z" fill="#BFDAE6" stroke="#2E66AB" stroke-width="3"/>
</g>
<defs>
<clipPath id="clip0_205_2527">
<rect width="200" height="196" fill="white"/>
</clipPath>
</defs>
</svg>
