<svg width="24" height="24" viewBox="0 0 24 24" fill="none" xmlns="http://www.w3.org/2000/svg">
<g id="shield_locked">
<rect id="Bounding box" width="24" height="24" rx="4" fill="#8D8C92"/>
<path id="shield_locked_2" d="M11.4 20C9.54667 19.5333 8.01667 18.47 6.81 16.81C5.60333 15.15 5 13.3067 5 11.28V6.4L11.4 4L17.8 6.4V11.28C17.8 11.4133 17.7967 11.5467 17.79 11.68C17.7833 11.8133 17.7733 11.9467 17.76 12.08C17.64 12.0533 17.5167 12.0333 17.39 12.02C17.2633 12.0067 17.1333 12 17 12C15.8933 12 14.95 12.3867 14.17 13.16C13.39 13.9333 13 14.88 13 16V19.4C12.7467 19.5333 12.4867 19.65 12.22 19.75C11.9533 19.85 11.68 19.9333 11.4 20ZM15.28 20C15.0933 20 14.9333 19.9333 14.8 19.8C14.6667 19.6667 14.6 19.5067 14.6 19.32V16.68C14.6 16.4933 14.6667 16.3333 14.8 16.2C14.9333 16.0667 15.0933 16 15.28 16H15.4V15.2C15.4 14.76 15.5567 14.3833 15.87 14.07C16.1833 13.7567 16.56 13.6 17 13.6C17.44 13.6 17.8167 13.7567 18.13 14.07C18.4433 14.3833 18.6 14.76 18.6 15.2V16H18.72C18.9067 16 19.0667 16.0667 19.2 16.2C19.3333 16.3333 19.4 16.4933 19.4 16.68V19.32C19.4 19.5067 19.3333 19.6667 19.2 19.8C19.0667 19.9333 18.9067 20 18.72 20H15.28ZM16.2 16H17.8V15.2C17.8 14.9733 17.7233 14.7833 17.57 14.63C17.4167 14.4767 17.2267 14.4 17 14.4C16.7733 14.4 16.5833 14.4767 16.43 14.63C16.2767 14.7833 16.2 14.9733 16.2 15.2V16Z" fill="white"/>
</g>
</svg>
