<svg width="22" height="24" viewBox="0 0 22 24" fill="none" xmlns="http://www.w3.org/2000/svg">
<path d="M14.5054 10.4363H20.381C20.5598 10.4363 20.6945 10.2735 20.6611 10.0978L20.5089 9.29907L20.2382 8.40553L19.832 7.41723L19.3311 6.42892L18.7625 5.54892L18.1532 4.77723L17.7471 4.344L17.3139 3.91077L16.6505 3.34215L16.2443 3.04431L15.8246 2.76L15.1883 2.36738L14.5656 2.04246L13.9969 1.78523L13.2523 1.51446L12.6025 1.31138L11.6548 1.12185L11.1809 1.04062L10.7206 1H8.94711L8.01295 1.10831L7.16003 1.28431L6.42896 1.528L7.11738 1.37024C7.5236 1.27714 7.94432 1.23015 8.36106 1.23015C8.63175 1.23015 8.9055 1.25041 9.17317 1.29074C9.56284 1.34946 9.94495 1.45044 10.3128 1.5919L10.8154 1.78523C11.4374 2.12775 12.0337 2.51492 12.5996 2.94367L12.6431 2.97661L12.7524 3.08404C13.2024 3.52626 13.6184 4.00174 13.9969 4.50646L14.3095 5.01523C14.4888 5.30715 14.6393 5.61582 14.7588 5.93689L14.9089 6.33987C15.0043 6.59618 15.0585 6.866 15.0694 7.13928L15.0815 7.44039C15.0894 7.6389 15.0516 7.83657 14.9709 8.01812C14.9444 8.07774 14.9134 8.13528 14.8783 8.19025L14.8725 8.19918C14.7682 8.36214 14.6321 8.50233 14.4722 8.61133L14.1188 8.8523L13.8947 9.02034C13.828 9.07043 13.7699 9.13119 13.7228 9.20017C13.6368 9.32635 13.5908 9.47552 13.5908 9.62824V9.63867C13.5908 9.77977 13.6284 9.91832 13.6998 10.04L13.7359 10.1017C13.7912 10.1961 13.8745 10.271 13.9742 10.316L13.9993 10.3273C14.1584 10.3991 14.3309 10.4363 14.5054 10.4363Z" fill="white" stroke="#0B2442" stroke-width="1.1"/>
<path d="M14.5054 13.6043L20.381 13.6043C20.5598 13.6043 20.6945 13.7671 20.6611 13.9428L20.5089 14.7415L20.2382 15.6351L19.832 16.6234L19.3311 17.6117L18.7625 18.4917L18.1532 19.2634L17.7471 19.6966L17.3139 20.1298L16.6505 20.6985L16.2443 20.9963L15.8246 21.2806L15.1883 21.6732L14.5656 21.9982L13.9969 22.2554L13.2523 22.5262L12.6025 22.7157L11.6548 22.9188L11.1809 22.9729L10.7206 23H8.94711L8.8602 22.9924C8.29621 22.9434 7.73685 22.8509 7.18711 22.7157L6.42896 22.5126L7.11738 22.6704C7.5236 22.7635 7.94432 22.8105 8.36106 22.8105C8.63175 22.8105 8.9055 22.7902 9.17317 22.7499C9.56284 22.6912 9.94495 22.5902 10.3128 22.4487L10.8154 22.2554C11.4374 21.9129 12.0337 21.5257 12.5996 21.0969L12.6431 21.064L12.7524 20.9566C13.2024 20.5144 13.6184 20.0389 13.9969 19.5342L14.3095 19.0254C14.4888 18.7335 14.6393 18.4248 14.7588 18.1037L14.9089 17.7007C15.0043 17.4444 15.0585 17.1746 15.0694 16.9013L15.0815 16.6002C15.0894 16.4017 15.0516 16.204 14.9709 16.0225C14.9444 15.9629 14.9134 15.9053 14.8783 15.8504L14.8725 15.8414C14.7682 15.6785 14.6321 15.5383 14.4722 15.4293L14.1188 15.1883L13.8947 15.0203C13.828 14.9702 13.7699 14.9094 13.7228 14.8404C13.6368 14.7143 13.5908 14.5651 13.5908 14.4124V14.4019C13.5908 14.2608 13.6284 14.1223 13.6998 14.0006L13.7359 13.939C13.7912 13.8446 13.8745 13.7697 13.9742 13.7246L13.9993 13.7133C14.1584 13.6415 14.3309 13.6043 14.5054 13.6043Z" fill="white" stroke="#0B2442" stroke-width="1.1"/>
<path d="M14.6589 8.39651L14.6651 8.40587C14.6695 8.4125 14.679 8.41316 14.6842 8.40721L14.7843 8.29374C14.8458 8.22408 14.8987 8.14727 14.9418 8.06497C14.9974 7.95867 15.0363 7.84437 15.0568 7.72615L15.0607 7.7039C15.0735 7.63022 15.0799 7.55557 15.0799 7.48079V7.33594L15.0727 7.22075C15.0595 7.00903 15.0302 6.79862 14.9852 6.59133L14.8498 6.18517L14.6196 5.57594L14.2947 4.98025L13.9156 4.3981L13.4824 3.82948L12.9003 3.23379L12.3587 2.75995L11.7766 2.34026L11.3163 2.06949L11.0027 1.88659C10.8871 1.81913 10.7654 1.76252 10.6393 1.71749L10.0436 1.50087L9.44795 1.33841L8.89288 1.25718L8.25657 1.2301L7.76918 1.25718L7.32242 1.32487L6.67059 1.47301C6.50991 1.50953 6.35363 1.56322 6.20444 1.63315C6.06559 1.69824 5.93361 1.77705 5.81046 1.86842L5.70796 1.94447C5.62008 2.00967 5.53711 2.08126 5.45973 2.15864C5.33905 2.27932 5.23261 2.41345 5.14251 2.55839L5.07177 2.6722C5.00188 2.78462 4.94228 2.90312 4.89367 3.02625C4.80754 3.24444 4.75683 3.47499 4.74345 3.70919L4.73657 3.82948L4.74741 4.00835C4.75818 4.18601 4.79477 4.36114 4.85604 4.52824C4.89365 4.63081 4.94036 4.72982 4.99561 4.82407L5.01195 4.85194C5.09883 5.00015 5.20283 5.13763 5.3218 5.26156L5.46765 5.41348L5.91442 5.86025L6.33411 6.21225L6.82149 6.63194L7.44426 7.1464L7.93695 7.54834C7.94566 7.55544 7.95872 7.54924 7.95872 7.538V7.28971C7.95872 7.15007 7.98259 7.01146 8.02928 6.87986C8.08105 6.73396 8.16001 6.59918 8.26196 6.48266L8.32397 6.41179C8.36919 6.36011 8.41913 6.31275 8.47313 6.27032C8.54509 6.21377 8.62379 6.16637 8.70743 6.1292L8.73452 6.11716C8.79488 6.09034 8.85714 6.06799 8.92078 6.05031L9.06888 6.00917C9.30301 5.96415 9.5409 5.94148 9.77932 5.94148H9.82703H10.0707L10.2873 5.95502L10.68 6.02271L11.0319 6.10394L11.4381 6.22579L11.8307 6.36117L12.2775 6.53717L12.7243 6.75379L13.1033 6.95687L13.4553 7.20056L13.5852 7.29169C14.0093 7.5893 14.3735 7.9641 14.6589 8.39651Z" fill="white" stroke="#0B2442" stroke-width="1.1"/>
<path d="M14.6589 15.6305L14.6651 15.6211C14.6695 15.6145 14.679 15.6138 14.6842 15.6198L14.7843 15.7332C14.8458 15.8029 14.8987 15.8797 14.9418 15.962C14.9974 16.0683 15.0363 16.1826 15.0568 16.3008L15.0607 16.3231C15.0735 16.3968 15.0799 16.4714 15.0799 16.5462V16.691L15.0727 16.8062C15.0595 17.0179 15.0302 17.2284 14.9852 17.4356L14.8498 17.8418L14.6196 18.451L14.2947 19.0467L13.9156 19.6289L13.4824 20.1975L12.9003 20.7932L12.3587 21.267L11.7766 21.6867L11.3163 21.9575L11.0027 22.1404C10.8871 22.2079 10.7654 22.2645 10.6393 22.3095L10.0436 22.5261L9.44795 22.6886L8.89288 22.7698L8.25657 22.7969L7.76918 22.7698L7.32242 22.7021L6.67059 22.554C6.50991 22.5174 6.35363 22.4638 6.20444 22.3938C6.06559 22.3287 5.93361 22.2499 5.81046 22.1586L5.70796 22.0825C5.62008 22.0173 5.53711 21.9457 5.45973 21.8683C5.33905 21.7477 5.23261 21.6135 5.14251 21.4686L5.07177 21.3548C5.00188 21.2424 4.94228 21.1239 4.89367 21.0007C4.80754 20.7825 4.75683 20.552 4.74345 20.3178L4.73657 20.1975L4.74741 20.0186C4.75818 19.841 4.79477 19.6658 4.85604 19.4987C4.89365 19.3962 4.94036 19.2972 4.99561 19.2029L5.01195 19.175C5.09883 19.0268 5.20283 18.8893 5.3218 18.7654L5.46765 18.6135L5.91442 18.1667L6.33411 17.8147L6.82149 17.395L7.44426 16.8806L7.93695 16.4786C7.94566 16.4715 7.95872 16.4777 7.95872 16.489V16.7373C7.95872 16.8769 7.98259 17.0155 8.02928 17.1471C8.08105 17.293 8.16001 17.4278 8.26196 17.5443L8.32397 17.6152C8.36919 17.6669 8.41913 17.7142 8.47313 17.7567C8.54509 17.8132 8.62379 17.8606 8.70743 17.8978L8.73452 17.9098C8.79488 17.9366 8.85714 17.959 8.92078 17.9767L9.06888 18.0178C9.30301 18.0628 9.5409 18.0855 9.77932 18.0855H9.82703H10.0707L10.2873 18.072L10.68 18.0043L11.0319 17.923L11.4381 17.8012L11.8307 17.6658L12.2775 17.4898L12.7243 17.2732L13.1033 17.0701L13.4553 16.8264L13.5852 16.7353C14.0093 16.4377 14.3735 16.0629 14.6589 15.6305Z" fill="white" stroke="#0B2442" stroke-width="1.1"/>
<path d="M5.73846 22.2554L6.42892 22.5126L6.00923 22.2824L5.83947 22.1673C5.70024 22.0728 5.57026 21.9653 5.45128 21.8463C5.32714 21.7222 5.21556 21.5861 5.11818 21.44L5.048 21.3348L4.9719 21.1767C4.90546 21.0387 4.85279 20.8945 4.81465 20.7462L4.81281 20.739C4.77117 20.5771 4.74759 20.411 4.74253 20.2439L4.74188 20.2224C4.73837 20.1067 4.74484 19.991 4.7612 19.8765L4.76481 19.8512C4.78207 19.7304 4.81179 19.6117 4.85349 19.497C4.88384 19.4136 4.92042 19.3325 4.96294 19.2546L4.9774 19.2281C5.0334 19.1254 5.09761 19.0275 5.16941 18.9351L5.25107 18.8301L5.76553 18.3021L6.28 17.8554L7.86943 16.5395C7.91087 16.5052 7.94964 16.4678 7.98538 16.4276C8.02174 16.3867 8.06121 16.3487 8.10345 16.3139L9.19076 15.4185L9.88122 14.7821L10.504 14.1865L11.1403 13.4283L11.2421 13.2943C11.3455 13.1583 11.4351 13.0124 11.5096 12.8587L11.5314 12.8137C11.5864 12.7002 11.6308 12.5818 11.664 12.4601L11.6775 12.4108C11.7163 12.2684 11.736 12.1215 11.736 11.9739V11.9308C11.736 11.8553 11.7289 11.7799 11.7147 11.7056C11.6929 11.5911 11.6546 11.4803 11.6009 11.3768L11.4533 11.0921C11.3532 10.899 11.2348 10.716 11.0997 10.5456L10.7341 10.0843L10.1926 9.54277L9.31261 8.73046L7.94522 7.55261L6.52369 6.37477L6.11753 6.03631L5.77907 5.72492L5.56246 5.50831L5.27815 5.21046L5.17151 5.07717C5.09834 4.98569 5.03333 4.88798 4.97723 4.78514L4.96707 4.76651C4.92182 4.68354 4.88338 4.59702 4.85216 4.50782C4.82031 4.41681 4.79607 4.32333 4.77969 4.22831L4.77094 4.17758C4.7481 4.04508 4.73661 3.91087 4.73661 3.77641V3.74831L4.76369 3.51816L4.8043 3.31508L4.85204 3.16657C4.90138 3.01308 4.96236 2.86359 5.03446 2.71939L5.18338 2.48923L5.3323 2.28616L5.37012 2.24543C5.46206 2.14642 5.56267 2.05584 5.67077 1.97477L5.84591 1.85968C6.04476 1.72901 6.25323 1.6136 6.46953 1.51447L6.15815 1.60923L5.4 1.90708L4.57415 2.32677L4.18154 2.54339L3.61292 2.89539L3.31507 3.12554L2.73292 3.57231L2.20492 4.07323L1.82585 4.50646C1.62754 4.7859 1.44952 5.07919 1.29316 5.38409L1.25723 5.45415L1.09477 5.90092C1.0497 6.10823 1.01999 6.31858 1.00588 6.53026L1 6.61846L1.00529 6.70039C1.01977 6.92489 1.05886 7.14711 1.12185 7.36308C1.18488 7.55217 1.2661 7.7347 1.36436 7.90812L1.44677 8.05354L1.77169 8.52738L2.20492 9.04184L2.50277 9.3803L2.80061 9.71877L3.07138 10.0708L3.34215 10.4634L3.48839 10.7559C3.55327 10.8856 3.60836 11.02 3.6532 11.158C3.72537 11.3801 3.77056 11.61 3.78781 11.8428L3.78892 11.8578V12.0122C3.78892 12.1528 3.77802 12.2931 3.75632 12.432C3.73297 12.5815 3.69719 12.7287 3.64935 12.8722L3.59938 13.0221C3.43727 13.3644 3.24378 13.6909 3.02141 13.9974L2.85477 14.2271L2.08308 15.0935L1.69046 15.608L1.50571 15.8814C1.40347 16.0327 1.31571 16.1936 1.24377 16.3615C1.18069 16.5086 1.1299 16.661 1.09206 16.8165L1.08545 16.8437C1.04662 17.0033 1.02305 17.1663 1.01504 17.3304L1.0141 17.3497C1.00473 17.5417 1.01818 17.7342 1.05415 17.9231L1.10958 18.1246C1.17177 18.3508 1.25497 18.5706 1.35807 18.7813C1.4621 18.9939 1.58593 19.1962 1.72793 19.3855L1.79877 19.48L1.97477 19.6966L2.20492 19.9538L2.70584 20.4277L3.16615 20.8068L3.69415 21.1723L4.22215 21.4972L4.89907 21.8628L5.73846 22.2554Z" fill="white" stroke="#0B2442" stroke-width="1.1"/>
</svg>
