<svg width="200" height="196" viewBox="0 0 200 196" fill="none" xmlns="http://www.w3.org/2000/svg">
<path d="M30.9764 89.6483L30.7669 91.3334H32.465H43.4521L24.5 110.847L5.54786 91.3334H15.9683H17.3271L17.461 89.9812C21.4692 49.498 55.6218 17.8334 97.145 17.8334C141.477 17.8334 177.393 53.9108 177.393 98C177.393 142.089 141.477 178.167 97.145 178.167C69.6537 178.167 45.5236 164.239 31.0405 143.017C30.9135 142.831 30.9419 142.555 31.1507 142.39L40.8596 134.709C41.0835 134.532 41.4595 134.566 41.6553 134.862C53.6262 152.904 73.9814 164.833 97.2266 164.833C114.952 164.833 131.951 157.792 144.485 145.258C157.019 132.725 164.06 115.725 164.06 98C164.06 80.2747 157.019 63.2754 144.485 50.7417C131.951 38.2081 114.952 31.1667 97.2266 31.1667C63.1383 31.1667 35.0701 56.732 30.9764 89.6483ZM119.818 83.6267V85.097L121.288 85.1264C124.583 85.1923 127.25 87.8196 127.25 91.14V128.788C127.25 132.054 124.563 134.802 121.237 134.802H76.075C72.749 134.802 70.0616 132.054 70.0616 128.788V91.14C70.0616 87.8196 72.7284 85.1923 76.0233 85.1264L77.4933 85.097V83.6267V75.3784C77.4933 63.7153 87.0265 54.2567 98.615 54.2567C110.289 54.2567 119.818 63.7188 119.818 75.3784V83.6267ZM85.9266 83.6267V85.1267H87.4266H109.885H111.385V83.6267V75.3784C111.385 68.3291 105.636 62.69 98.615 62.69C91.6687 62.69 85.9266 68.3362 85.9266 75.3784V83.6267Z" fill="#BFDAE6" stroke="#2E66AB" stroke-width="3"/>
</svg>
